<svg width="56" height="57" viewBox="0 0 56 57" fill="none" xmlns="http://www.w3.org/2000/svg">
<g id="Group 2110">
<g id="Group 2107">
<path id="Vector" d="M56 28.0393C56 38.4314 50.3339 47.5017 41.9339 52.3343C41.5622 52.5408 41.1906 52.7474 40.8106 52.9456C40.4389 53.1356 40.059 53.3174 39.6708 53.4991C36.1192 55.1265 32.1628 56.0352 28 56.0352C24.7705 56.0352 21.6649 55.4899 18.7823 54.4821C17.8077 54.1434 16.8661 53.7552 15.9493 53.3174C15.908 53.3008 15.8584 53.276 15.8171 53.2513C15.4372 53.0695 15.0572 52.8795 14.6855 52.673C14.3056 52.4748 13.9339 52.26 13.5622 52.0369C5.43481 47.13 0 38.2249 0 28.0393C0 13.1368 11.6295 0.960367 26.3068 0.0847214C26.3316 0.0847214 26.3563 0.0847212 26.3811 0.0764604C26.7776 0.0599388 27.1823 0.0434172 27.5953 0.0434172C27.5953 0.0434172 27.6035 0.0351564 27.6118 0.0434172C27.6861 0.0351564 27.7605 0.0351562 27.8348 0.0351562L28 0.0351562C28.3717 0.0351562 28.7434 0.0434176 29.115 0.0599392H29.1233C44.0649 0.646456 56 12.9385 56 28.0393Z" fill="#E83B2F"/>
<path id="Vector_2" d="M43 19.9456H42.7721L39.3275 19.9123L34.8192 19.8705L33.6119 15.0056L39.3275 12.886V8.60518L31.7208 7.40354L29.9057 0.060191H29.8972C29.5173 0.0435015 29.1374 0.0351562 28.7575 0.0351562L28.5971 0.0351562L28.614 0.101914L28.6815 0.377289L28.4029 0.0852249L28.3269 0.101914L28.3438 0.0435012C27.9217 0.0435012 27.508 0.0601905 27.1028 0.07688L27.0015 0.177016L21.3956 5.36743V8.29642L24.8486 8.84717L23.0082 16.2656L14.0675 19.5868V22.1737L21.5307 22.2488L14 52.5651C14.3799 52.7904 14.7598 53.0074 15.1482 53.2077C15.5281 53.4163 15.9164 53.6082 16.3048 53.7918L20.6696 36.2095L34.9543 42.6099L16.4399 53.8586C17.377 54.3008 18.3394 54.693 19.3357 55.0352L38.1033 43.6279L40.6868 54.0421C41.0836 53.8586 41.4719 53.675 41.8518 53.483C42.2402 53.2828 42.6201 53.0741 43 52.8655L36.533 26.7883L43 22.5575V19.9456ZM37.5799 10.8582L33.0041 12.5606L32.3793 10.0321L37.5799 10.8582ZM28.4705 4.79164L29.0108 6.96961L27.9723 6.81106L28.4705 4.79164ZM27.3645 9.23937L29.6608 9.60654L30.6148 13.4451L25.887 15.1975L27.3645 9.23937ZM24.1901 6.21024L25.8955 4.63309L25.4565 6.41052L24.1901 6.21024ZM25.1525 18.1515L31.2227 15.8901L32.202 19.8455L24.7473 19.7704L25.1525 18.1515ZM20.8722 19.737L22.2821 19.2113L22.147 19.7454L20.8722 19.737ZM24.131 22.2655L32.8268 22.3489L33.6541 25.6701L21.2774 33.7728L24.131 22.2655ZM37.4448 40.9743L24.0381 34.9661L34.2873 28.257L37.4448 40.9743ZM35.8914 24.2014L35.4355 22.374L38.6352 22.4073L35.8914 24.2014Z" fill="#FAFAFA"/>
</g>
</g>
</svg>
