<svg width="56" height="57" fill="none" xmlns="http://www.w3.org/2000/svg"><g id="Group 2110"><g id="Group 2107"><path id="Vector" d="M56 28.04c0 10.391-5.666 19.462-14.066 24.294a50.24 50.24 0 01-1.123.612A27.958 27.958 0 0128 56.036a27.893 27.893 0 01-13.315-3.363c-.38-.198-.752-.413-1.124-.636C5.435 47.13 0 38.225 0 28.039 0 13.137 11.63.96 26.307.085c.025 0 .05 0 .074-.009a28.99 28.99 0 011.214-.033s.009-.008.017 0c.074-.008.149-.008.223-.008H28c.372 0 .743.008 1.115.025h.008C44.065.646 56 12.938 56 28.04z" fill="#E83B2F"/><path id="Vector_2" d="M43 19.946h-.228l-3.444-.034-4.509-.041-1.207-4.865 5.715-2.12v-4.28l-7.606-1.202L29.906.06h-.009c-.38-.016-.76-.025-1.14-.025h-.16l.017.067.067.275-.278-.292-.076.017.017-.058c-.422 0-.836.016-1.241.033l-.102.1-5.605 5.19v2.93l3.453.55-1.84 7.419-8.941 3.32v2.588l7.463.075L14 52.565c.38.225.76.442 1.148.643.38.208.768.4 1.157.584l4.365-17.583 14.284 6.4L16.44 53.86c.937.442 1.9.834 2.896 1.176l18.767-11.407 2.584 10.414a37.17 37.17 0 001.165-.559c.388-.2.768-.409 1.148-.617l-6.467-26.078L43 22.558v-2.612zm-5.42-9.088l-4.576 1.703-.625-2.529 5.2.826zm-9.11-6.066l.54 2.178-1.038-.159.498-2.02zm-1.105 4.447l2.296.368.954 3.838-4.728 1.752 1.477-5.958zM24.19 6.21l1.705-1.577-.439 1.778-1.266-.2zm.962 11.941l6.07-2.26.98 3.955-7.455-.076.405-1.619zm-4.28 1.586l1.41-.526-.135.534-1.275-.008zm3.259 2.529l8.696.083.827 3.321-12.377 8.103 2.854-11.508zm13.314 18.708l-13.407-6.008 10.25-6.709 3.157 12.717zM35.89 24.201l-.456-1.827 3.2.033-2.744 1.794z" fill="#FAFAFA"/></g></g></svg>